<svg width="47" height="22" viewBox="0 0 47 22" fill="none" xmlns="http://www.w3.org/2000/svg">
<path d="M27.3534 8.44642C27.3294 7.20909 26.3188 6.21308 25.0761 6.21308C23.8188 6.21308 22.7988 7.23309 22.7988 8.49175C22.7988 8.53842 22.8001 8.58375 22.8028 8.62909V14.3838C22.8028 16.0064 21.4614 17.5598 19.7334 17.5598C18.0041 17.5598 16.6281 15.9718 16.6281 14.3838V8.62909C16.6308 8.58375 16.6321 8.53842 16.6321 8.49175C16.6321 7.23309 15.6121 6.21308 14.3534 6.21308C13.0961 6.21308 12.0761 7.23309 12.0761 8.49175C12.0761 8.49575 12.0761 8.49975 12.0761 8.50375C12.0761 8.50642 12.0761 8.50908 12.0761 8.51175V14.3838C12.0761 18.1598 15.5334 21.5464 19.7334 21.5464C23.8961 21.5464 27.3548 18.1944 27.3548 14.3838V8.47575C27.3548 8.46642 27.3534 8.45575 27.3534 8.44642Z" fill="#09DC8F"/>
<path d="M14.3541 6.53135C13.2728 6.53135 12.3941 7.41135 12.3941 8.49135V8.50202V8.51802V14.3834C12.3941 16.1127 13.1795 17.85 14.5488 19.15C15.9608 20.49 17.8021 21.2287 19.7328 21.2287C21.6528 21.2287 23.4835 20.4954 24.8861 19.1634C26.2528 17.866 27.0368 16.1247 27.0368 14.3834L27.0355 8.45268C27.0155 7.39268 26.1355 6.53135 25.0768 6.53135C23.9955 6.53135 23.1154 7.41135 23.1154 8.49135C23.1154 8.53135 23.1181 8.57135 23.1195 8.61002L23.1208 8.62868V14.3834C23.1208 16.2767 21.5688 17.8767 19.7328 17.8767C17.9101 17.8767 16.3101 16.2447 16.3101 14.3834V8.61002C16.3128 8.57135 16.3141 8.53135 16.3141 8.49135C16.3141 7.41135 15.4355 6.53135 14.3541 6.53135ZM19.7328 21.8647C17.6381 21.8647 15.6421 21.0647 14.1115 19.6114C12.6155 18.1914 11.7581 16.286 11.7581 14.3834V8.49135C11.7581 7.06069 12.9221 5.89535 14.3541 5.89535C15.7861 5.89535 16.9501 7.06069 16.9501 8.49135C16.9501 8.54069 16.9488 8.59002 16.9461 8.63802V14.3834C16.9461 15.7327 18.1381 17.242 19.7328 17.242C21.1995 17.242 22.4848 15.906 22.4848 14.3834V8.63802C22.4821 8.59002 22.4808 8.54069 22.4808 8.49135C22.4808 7.06069 23.6448 5.89535 25.0768 5.89535C26.4781 5.89535 27.6421 7.03535 27.6714 8.43668C27.6714 8.45268 27.6728 8.46468 27.6728 8.47668V14.3834C27.6728 18.438 24.0368 21.8647 19.7328 21.8647Z" fill="#09DC8F"/>
<path d="M45.9117 2.61669C45.9117 1.35802 44.8917 0.338022 43.633 0.338022C42.3757 0.338022 41.3557 1.35802 41.3557 2.61669C41.3557 3.87536 42.3757 4.89536 43.633 4.89536C44.8917 4.89536 45.9117 3.87536 45.9117 2.61669Z" fill="#09DC8F"/>
<path d="M43.6336 0.65628C42.5523 0.65628 41.6736 1.53628 41.6736 2.61628C41.6736 3.69761 42.5523 4.57761 43.6336 4.57761C44.7149 4.57761 45.5936 3.69761 45.5936 2.61628C45.5936 1.53628 44.7149 0.65628 43.6336 0.65628ZM43.6336 5.21228C42.2016 5.21228 41.0376 4.04828 41.0376 2.61628C41.0376 1.18561 42.2016 0.0202805 43.6336 0.0202805C45.0656 0.0202805 46.2296 1.18561 46.2296 2.61628C46.2296 4.04828 45.0656 5.21228 43.6336 5.21228Z" fill="#09DC8F"/>
<path d="M27.3618 2.61669C27.3618 1.35802 26.3418 0.338022 25.0832 0.338022C23.8258 0.338022 22.8058 1.35802 22.8058 2.61669C22.8058 3.87536 23.8258 4.89536 25.0832 4.89536C26.3418 4.89536 27.3618 3.87536 27.3618 2.61669Z" fill="#09DC8F"/>
<path d="M25.0837 0.65628C24.0024 0.65628 23.1237 1.53628 23.1237 2.61628C23.1237 3.69761 24.0024 4.57761 25.0837 4.57761C26.1651 4.57761 27.0437 3.69761 27.0437 2.61628C27.0437 1.53628 26.1651 0.65628 25.0837 0.65628ZM25.0837 5.21228C23.6517 5.21228 22.4877 4.04828 22.4877 2.61628C22.4877 1.18561 23.6517 0.0202805 25.0837 0.0202805C26.5157 0.0202805 27.6797 1.18561 27.6797 2.61628C27.6797 4.04828 26.5157 5.21228 25.0837 5.21228Z" fill="#09DC8F"/>
<path d="M15.5797 4.91788C16.1784 4.91788 16.6624 4.41254 16.6624 3.78854C16.6624 3.16588 16.1784 2.66054 15.5797 2.66054H13.1171C12.5197 2.66054 12.0344 3.16588 12.0344 3.78854C12.0344 4.41254 12.5197 4.91788 13.1171 4.91788H15.5797Z" fill="#09DC8F"/>
<path d="M13.1176 2.97817C12.6963 2.97817 12.3523 3.34217 12.3523 3.78884C12.3523 4.23684 12.6963 4.5995 13.1176 4.5995H15.5803C16.0016 4.5995 16.3443 4.23684 16.3443 3.78884C16.3443 3.34217 16.0016 2.97817 15.5803 2.97817H13.1176ZM15.5803 5.2355H13.1176C12.3456 5.2355 11.7176 4.58617 11.7176 3.78884C11.7176 2.9915 12.3456 2.34217 13.1176 2.34217H15.5803C16.3523 2.34217 16.9803 2.9915 16.9803 3.78884C16.9803 4.58617 16.3523 5.2355 15.5803 5.2355Z" fill="#09DC8F"/>
<path d="M8.10266 17.0023V16.993H7.42533C6.072 16.993 4.968 15.9316 4.89466 14.597V10.7703H7.948C9.20533 10.7703 10.2253 9.75029 10.2253 8.49162C10.2253 7.23295 9.20533 6.21295 7.948 6.21295H4.89466V2.60629C4.89466 1.34229 3.87066 0.318286 2.60666 0.318286C1.34266 0.318286 0.318665 1.34229 0.318665 2.60629V14.6743C0.318665 14.6796 0.318665 14.6863 0.318665 14.6916V15.4916C0.318665 18.845 3.03733 21.5623 6.38933 21.5623H8.00933L8.00133 21.553C8.004 21.553 8.00666 21.5543 8.00933 21.5543C9.26666 21.5543 10.2867 20.5343 10.2867 19.2756C10.2867 18.049 9.31733 17.0516 8.10266 17.0023Z" fill="#09DC8F"/>
<path d="M0.636 14.6653C0.636 14.6733 0.637333 14.68 0.637333 14.6867V15.492C0.637333 18.664 3.21733 21.244 6.38933 21.244H7.33067L7.32267 21.236H8.01733C9.09467 21.232 9.96933 20.3533 9.96933 19.276C9.96933 18.2227 9.144 17.3627 8.08933 17.32L7.868 17.3107H7.42533C5.912 17.3107 4.66133 16.1267 4.57733 14.6147V14.596V10.452H7.948C9.028 10.452 9.908 9.57334 9.908 8.49201C9.908 7.41067 9.028 6.53201 7.948 6.53201H4.57733V2.60667C4.57733 1.52001 3.69333 0.636005 2.60667 0.636005C1.52 0.636005 0.636 1.52001 0.636 2.60667V14.6653ZM8.68667 21.88H6.38933C2.86667 21.88 0.00133332 19.0147 0.00133332 15.492V14.7013C0.00133332 14.692 0 14.6827 0 14.6733V2.60667C0 1.16934 1.16933 6.39041e-06 2.60667 6.39041e-06C4.04267 6.39041e-06 5.212 1.16934 5.212 2.60667V5.89601H7.948C9.37867 5.89601 10.544 7.06001 10.544 8.49201C10.544 9.92267 9.37867 11.088 7.948 11.088H5.212V14.588C5.28133 15.7587 6.252 16.6747 7.42533 16.6747H8.42V16.7147C9.66667 16.912 10.604 17.9827 10.604 19.276C10.604 20.496 9.75733 21.524 8.62 21.7987L8.68667 21.88Z" fill="#09DC8F"/>
<path d="M37.1884 17.0023V16.993H36.5111C35.1577 16.993 34.0537 15.9316 33.9804 14.597V10.7703H37.0337C38.2911 10.7703 39.3111 9.75029 39.3111 8.49162C39.3111 7.23295 38.2911 6.21295 37.0337 6.21295H33.9804V2.60629C33.9804 1.34229 32.9564 0.318286 31.6924 0.318286C30.4284 0.318286 29.4044 1.34229 29.4044 2.60629V14.6743C29.4044 14.6796 29.4044 14.6863 29.4044 14.6916V15.4916C29.4044 18.845 32.1231 21.5623 35.4751 21.5623H37.0951L37.0871 21.553C37.0897 21.553 37.0924 21.5543 37.0951 21.5543C38.3524 21.5543 39.3724 20.5343 39.3724 19.2756C39.3724 18.049 38.4031 17.0516 37.1884 17.0023Z" fill="#09DC8F"/>
<path d="M29.7219 14.6659C29.7219 14.6726 29.7232 14.6806 29.7232 14.6872V15.4926C29.7232 18.6632 32.3032 21.2446 35.4752 21.2446H36.4192L36.4125 21.2352L37.1032 21.2366C38.1805 21.2312 39.0552 20.3539 39.0552 19.2752C39.0552 18.2219 38.2299 17.3632 37.1752 17.3192L36.9539 17.3112H36.5112C34.9979 17.3112 33.7472 16.1259 33.6632 14.6139V14.5966V10.4526H37.0339C38.1139 10.4526 38.9939 9.57258 38.9939 8.49124C38.9939 7.41124 38.1139 6.53124 37.0339 6.53124H33.6632V2.60591C33.6632 1.51924 32.7792 0.635244 31.6925 0.635244C30.6059 0.635244 29.7219 1.51924 29.7219 2.60591V14.6659ZM37.7699 21.8792H35.4752C31.9525 21.8792 29.0872 19.0139 29.0872 15.4926V14.7006C29.0872 14.6912 29.0859 14.6832 29.0859 14.6739V2.60591C29.0859 1.16858 30.2552 0.000576052 31.6925 0.000576052C33.1285 0.000576052 34.2979 1.16858 34.2979 2.60591V5.89524H37.0339C38.4645 5.89524 39.6299 7.06058 39.6299 8.49124C39.6299 9.92324 38.4645 11.0872 37.0339 11.0872H34.2979V14.5872C34.3672 15.7592 35.3379 16.6752 36.5112 16.6752H37.5059V16.7152C38.7525 16.9112 39.6899 17.9832 39.6899 19.2752C39.6899 20.4979 38.8419 21.5246 37.7032 21.7992L37.7699 21.8792Z" fill="#09DC8F"/>
<path d="M43.6336 21.52C42.3629 21.52 41.3336 20.4894 41.3336 19.22V8.49869C41.3336 7.22802 42.3629 6.19735 43.6336 6.19735C44.9043 6.19735 45.9336 7.22802 45.9336 8.49869V19.22C45.9336 20.4894 44.9043 21.52 43.6336 21.52Z" fill="#09DC8F"/>
<path d="M43.6335 6.51535C42.5401 6.51535 41.6508 7.40468 41.6508 8.49801V19.2193C41.6508 20.3127 42.5401 21.202 43.6335 21.202C44.7268 21.202 45.6161 20.3127 45.6161 19.2193V8.49801C45.6161 7.40468 44.7268 6.51535 43.6335 6.51535ZM43.6335 21.838C42.1895 21.838 41.0148 20.6633 41.0148 19.2193V8.49801C41.0148 7.05401 42.1895 5.87935 43.6335 5.87935C45.0775 5.87935 46.2521 7.05401 46.2521 8.49801V19.2193C46.2521 20.6633 45.0775 21.838 43.6335 21.838Z" fill="#09DC8F"/>
</svg>
