<svg width="42" height="53" viewBox="0 0 42 53" fill="none" xmlns="http://www.w3.org/2000/svg">
<path d="M7.99526 18.9478C5.76489 19.3585 4.29813 21.569 4.72227 23.8724L4.72646 23.8952L4.73274 23.9293L7.03619 36.4387C7.71533 40.127 10.0175 43.5341 13.3524 45.7866C16.7911 48.1083 20.8791 48.9843 24.8613 48.251C28.8216 47.5218 32.3095 45.2625 34.6796 41.8889C36.989 38.6029 37.9222 34.5913 37.2384 30.8774L34.9065 18.2292C34.449 15.976 32.2956 14.4732 30.112 14.8753C27.8816 15.286 26.4121 17.4971 26.8362 19.8004C26.852 19.8858 26.8732 19.9701 26.8911 20.052L26.9012 20.0913L29.1612 32.3647C29.9047 36.4028 27.3319 40.4047 23.5449 41.102C19.7855 41.7942 15.8444 38.9212 15.1134 34.9514L12.8461 22.6382C12.8364 22.5547 12.8234 22.4689 12.8077 22.3836C12.3836 20.0802 10.2256 18.5371 7.99526 18.9478ZM25.1111 49.6075C20.7906 50.4031 16.3595 49.4549 12.6315 46.9366C8.9882 44.4763 6.47158 40.7383 5.72436 36.6803L3.41045 24.114C2.8486 21.0627 4.79183 18.1352 7.74549 17.5913C10.6992 17.0475 13.5577 19.0908 14.1195 22.1421C14.1389 22.2473 14.1555 22.353 14.1689 22.4564L16.4252 34.7099C16.9551 37.5877 20.0065 40.354 23.2957 39.7484C26.3209 39.1913 28.4473 35.8538 27.8493 32.6063L25.593 20.3528C25.5687 20.2514 25.5465 20.1467 25.5272 20.0415C24.9653 16.9902 26.9085 14.0627 29.8622 13.5188C32.7526 12.9866 35.6012 14.9759 36.212 17.9535C36.2183 17.9876 36.2258 18.0127 36.2305 18.0383L38.5502 30.6359C40.1425 39.2836 33.9886 47.9728 25.1111 49.6075Z" fill="#AFF4DA"/>
<path d="M27.819 2.3424C25.5886 2.75309 24.1219 4.96366 24.546 7.26705C24.9707 9.57329 27.1286 11.1164 29.359 10.7057C31.5894 10.295 33.0561 8.08447 32.6315 5.77823C32.2073 3.47483 30.0494 1.93171 27.819 2.3424ZM29.6082 12.0593C26.6546 12.6032 23.7966 10.5627 23.2342 7.50861C22.6723 4.45732 24.6156 1.52983 27.5692 0.985957C30.5229 0.44208 33.3814 2.48538 33.9433 5.53667C34.5057 8.5908 32.5619 11.5154 29.6082 12.0593Z" fill="#AFF4DA"/>
<path d="M4.04934 11.8392C3.1803 11.9993 2.61371 12.9062 2.78912 13.8589C2.96506 14.8144 3.81703 15.4572 4.68608 15.2972L9.76561 14.3618C10.6347 14.2018 11.199 13.2982 11.0231 12.3427C10.8477 11.3901 9.99792 10.7439 9.12887 10.9039L4.04934 11.8392ZM10.0154 15.7183L4.93585 16.6536C3.34351 16.9468 1.79318 15.8005 1.48005 14.0999C1.16692 12.3994 2.20723 10.776 3.79957 10.4828L8.8791 9.54746C10.4714 9.25425 12.0218 10.4006 12.3349 12.1011C12.648 13.8017 11.6077 15.4251 10.0154 15.7183Z" fill="#AFF4DA"/>
</svg>
